<?xml version="1.0" encoding="UTF-8"?>
<!DOCTYPE svg PUBLIC "-//W3C//DTD SVG 1.1//EN" "http://www.w3.org/Graphics/SVG/1.1/DTD/svg11.dtd">
<!-- Creator: CorelDRAW 2021 (64-Bit) -->
<svg xmlns="http://www.w3.org/2000/svg" xml:space="preserve" width="35px" height="35px" version="1.1" style="shape-rendering:geometricPrecision; text-rendering:geometricPrecision; image-rendering:optimizeQuality; fill-rule:evenodd; clip-rule:evenodd"
viewBox="0 0 0.58 0.59"
 xmlns:xlink="http://www.w3.org/1999/xlink"
 xmlns:xodm="http://www.corel.com/coreldraw/odm/2003">
 <defs>
  <style type="text/css">
   <![CDATA[
    .fil0 {fill:white}
   ]]>
  </style>
 </defs>
 <g id="Layer_x0020_1">
  <metadata id="CorelCorpID_0Corel-Layer"/>
  <path class="fil0" d="M0.32 0.01l0.26 0.17c0,0 0.01,0.01 0,0.02 0,0.01 -0.01,0.02 -0.02,0.02l-0.54 0c-0.01,0 -0.02,-0.01 -0.02,-0.02 0,-0.01 0,-0.02 0.01,-0.02l0.25 -0.17c0.02,-0.01 0.04,-0.01 0.06,0zm-0.21 0.24l0.36 0c0.01,0 0.02,0.01 0.02,0.02l0 0.3c0,0.01 -0.01,0.02 -0.02,0.02l-0.36 0c-0.01,0 -0.02,-0.01 -0.02,-0.02l0 -0.3c0,-0.01 0.01,-0.02 0.02,-0.02z"/>
 </g>
</svg>
