<?xml version="1.0" encoding="UTF-8"?>
<!DOCTYPE svg PUBLIC "-//W3C//DTD SVG 1.1//EN" "http://www.w3.org/Graphics/SVG/1.1/DTD/svg11.dtd">
<!-- Creator: CorelDRAW 2021 (64-Bit) -->
<svg xmlns="http://www.w3.org/2000/svg" xml:space="preserve" width="249px" height="121px" version="1.1" style="shape-rendering:geometricPrecision; text-rendering:geometricPrecision; image-rendering:optimizeQuality; fill-rule:evenodd; clip-rule:evenodd"
viewBox="0 0 166.31 80.78"
 xmlns:xlink="http://www.w3.org/1999/xlink"
 xmlns:xodm="http://www.corel.com/coreldraw/odm/2003">
 <defs>
  <style type="text/css">
   <![CDATA[
    .fil0 {fill:none}
    .fil2 {fill:#A40004;fill-rule:nonzero}
    .fil1 {fill:url(#id0);fill-rule:nonzero}
   ]]>
  </style>
  <linearGradient id="id0" gradientUnits="userSpaceOnUse" x1="16.69" y1="27.38" x2="16.69" y2="74.11">
   <stop offset="0" style="stop-opacity:1; stop-color:#A40004"/>
   <stop offset="1" style="stop-opacity:1; stop-color:#FE7276"/>
  </linearGradient>
 </defs>
 <g id="Layer_x0020_1">
  <metadata id="CorelCorpID_0Corel-Layer"/>
  <g id="_1696847117968">
   <rect class="fil0" width="166.31" height="80.78"/>
   <path class="fil1" d="M30.07 24.74c3.04,2 4.37,5.15 4.77,8.94 1.54,-5.16 3.88,-9.49 7.75,-12.22 -4,-1.76 -8.15,-1.08 -12.52,3.28zm-14.01 18.78c-0.01,5.97 4.58,11.13 11.92,15.8 13.11,7.36 18.01,14.5 15.51,21.46 -1.82,-5.53 -8.53,-12.19 -18.79,-19.67 -8.35,-5.67 -10.82,-11.55 -8.64,-17.59zm2.38 -2.98c0.57,5.57 4.74,10.72 14.91,15.2 12.95,5.84 17.35,12.16 16.39,18.78 -4.06,-6.31 -10.35,-11.34 -18.18,-15.5 -11.48,-5.76 -14.92,-11.97 -13.12,-18.48zm1.2 -1.49c1.53,3.26 4.16,6.39 9.24,9.24 4.71,1.72 7.9,3.96 8.34,7.16 -1.74,-1.96 -4.67,-3.85 -8.94,-5.67 -6.26,-2.88 -8.76,-6.54 -8.64,-10.73zm-9.54 -11.03c0.95,1.45 4.19,3.28 10.73,5.66 7.57,2.59 9.76,6.46 7.75,11.33 -0.16,-3.69 -2.1,-6.61 -7.45,-8.05 -7.58,-1.65 -10.22,-4.98 -11.03,-8.94zm-5.96 -9.84c2.69,3.61 8.08,6.75 15.5,9.54 9.76,3.57 13.53,8.34 11.32,14.31 -0.21,-4.68 -4.21,-8.42 -11.62,-11.33 -10.08,-2.73 -14.39,-7.12 -15.2,-12.52zm-3.88 -18.18c0.65,10.13 7.14,16.33 16.99,20.27 12.85,4.05 17.2,9.83 16.1,16.69 -1.6,-5.89 -7.38,-10.25 -16.4,-13.41 -15.05,-5.1 -17.94,-13.73 -16.69,-23.55z"/>
   <path class="fil2" d="M162.64 43.39l-1.94 -4.89 2.02 -1.77c0.96,-0.87 2.3,-2.22 3.53,-2.33l0.06 -0.2 -3.7 0 -0.06 0.2c1.22,0.09 0.16,1.09 -0.76,1.95l-1.39 1.31 -0.47 -1.24c-0.32,-0.86 -0.65,-1.9 0.65,-2.02l0.06 -0.2 -4.76 0.01 -0.06 0.2c0.92,0.04 1.31,1.59 1.59,2.3l1.05 2.68 -4.54 4.08c-0.65,0.6 -1.32,1.3 -2.17,1.46l-0.06 0.2 3.41 0 0.06 -0.2c-1.15,-0.16 -0.4,-0.96 1.46,-2.66l2.2 -2 0.91 2.51c0.41,1.12 0.75,1.99 -0.49,2.14l-0.06 0.2 4.58 0 0.06 -0.2c-0.7,-0.09 -0.94,-1 -1.18,-1.53zm-17.58 -4.48c-1.24,1.11 -2.49,2.33 -3.52,3.53 -1.09,1.28 -2.1,2.35 -2.68,2.5l-0.06 0.2 4.74 0 0.06 -0.2c-0.87,-0.18 -0.76,-0.87 -0.11,-1.71 0.94,-1.19 2.38,-2.68 3.66,-3.77 0.56,0.14 1.25,0.27 1.72,0.38l-0.77 2.59c-0.36,1.17 -0.83,2.46 -2.07,2.46l-0.1 0.24 4.94 0 0.06 -0.2c-1.3,0 -0.91,-1.39 -0.57,-2.52l1.64 -5.48c0.34,-1.12 0.79,-2.52 2.09,-2.52l0.06 -0.2 -6.31 0.01c-1.79,0 -4.38,0.04 -4.98,2.04 -0.35,1.19 0.72,2.06 2.2,2.65zm4.11 -0.07l-2.23 -0.44c-1.07,-0.29 -1.95,-0.95 -1.65,-1.95 0.33,-1.1 1.55,-1.33 2.54,-1.33 2.46,0 2.43,0.09 1.98,1.6l-0.64 2.12zm-17.37 3.6l1.09 -3.65c3.08,0 4.44,1.21 3.89,3.07 -0.46,1.51 -2.04,2.35 -4.01,2.36 -1.31,0 -1.49,-0.05 -0.97,-1.78zm-4.4 2.71l5.53 0c3.43,0.01 5.76,-1.25 6.36,-3.24 0.8,-2.68 -1.98,-4.03 -6.12,-4.03l0.28 -0.93c0.34,-1.15 0.71,-2.39 2.3,-2.53l0.06 -0.19 -5.13 0 -0.06 0.2c1.27,0.11 0.91,1.39 0.57,2.52l-1.65 5.47c-0.33,1.13 -0.74,2.42 -2.08,2.53l-0.06 0.2zm-3.35 -10.1c1.46,0 1.25,0.71 0.89,1.91l-1.64 5.47c-0.36,1.2 -0.78,2.52 -2.11,2.53l-0.06 0.2 4.94 -0.01 0.06 -0.2c-1.31,0 -0.93,-1.33 -0.57,-2.52l1.64 -5.47c0.36,-1.2 0.79,-2.55 2.09,-2.55l0.06 -0.18 -8.57 0.01 -0.06 0.17c0.82,0.09 0.4,0.91 -0.04,1.33 -3.87,3.68 -5.24,8 -5.66,9.42l3.65 0 0.06 -0.2c-1.36,-0.11 -1.64,-1.09 -1.4,-1.9 0.86,-2.86 2.61,-5.68 4.29,-7.05 0.77,-0.64 1.63,-0.96 2.43,-0.96zm-22.82 7.42l1.1 -3.65c3.08,-0.01 4.44,1.21 3.88,3.07 -0.45,1.51 -2.03,2.35 -4,2.35 -1.31,0 -1.49,-0.04 -0.98,-1.77zm-4.39 2.71l5.53 -0.01c3.43,0.02 5.76,-1.24 6.36,-3.24 0.8,-2.68 -1.98,-4.03 -6.12,-4.02l0.27 -0.93c0.35,-1.15 0.72,-2.4 2.31,-2.53l0.06 -0.2 -5.14 0.01 -0.05 0.19c1.27,0.11 0.9,1.4 0.57,2.53l-1.65 5.47c-0.34,1.13 -0.74,2.41 -2.08,2.53l-0.06 0.2zm16.32 -2.74l1.64 -5.47c0.36,-1.2 0.78,-2.53 2.09,-2.53l0.06 -0.2 -4.92 0.01 -0.06 0.19c1.27,0.11 0.91,1.4 0.57,2.53l-1.64 5.47c-0.34,1.13 -0.75,2.42 -2.09,2.53l-0.06 0.2 4.92 -0.01 0.06 -0.2c-1.31,0 -0.93,-1.33 -0.57,-2.52zm-23.47 -7.25l1.53 0c2.77,0 4.26,1.68 3.4,4.54 -0.74,2.46 -2.82,4.52 -5.41,4.52 -2.02,0 -2.02,-0.71 -1.58,-2.19l2.06 -6.87zm2.56 -0.93l-5.87 0.01 -0.06 0.2c1.28,0.08 0.93,1.32 0.57,2.52l-3.04 10.15c-0.35,1.17 -0.75,2.43 -2.09,2.52l-0.06 0.2 4.92 0 0.06 -0.2c-1.26,-0.09 -0.9,-1.37 -0.54,-2.55l0.6 -2.01 2.39 0.08c3.39,0.13 6.72,-1.6 7.84,-5.32 1.12,-3.74 -0.86,-5.6 -4.72,-5.6zm-16.85 4.8l0.62 -2.06c0.36,-1.2 0.78,-2.53 2.09,-2.53l0.06 -0.2 -4.92 0.01 -0.06 0.2c1.27,0.11 0.91,1.39 0.57,2.52l-1.64 5.47c-0.35,1.16 -0.74,2.4 -2.09,2.53l-0.06 0.2 4.92 0 0.06 -0.2c-1.31,0 -0.98,-1.18 -0.57,-2.55l0.71 -2.35 2.02 -1.42c0.88,0.91 2.11,4.25 1.71,5.6 -0.13,0.42 -0.59,0.71 -0.97,0.71l-0.06 0.2 4.72 0 0.06 -0.2c-0.79,-0.11 -0.78,-0.64 -0.94,-1.31 -0.51,-2.28 -1.09,-4.56 -2.45,-6.35l0.7 -0.49c1.42,-0.97 2.92,-2.15 4.54,-2.37l0.06 -0.2 -4.52 0 -0.06 0.2c1.19,0.18 -0.07,1.29 -0.73,1.77l-3.77 2.82zm-15.32 -0.21l-0.17 0.56c-0.56,2.17 -2.01,4.78 -4.85,4.78 -0.95,0 -1.61,-0.59 -1.3,-1.64 0.69,-2.28 4.46,-3.32 6.32,-3.7zm-0.98 6.36l3.03 0 0.06 -0.2c-1.46,-0.31 -1.05,-1.73 -0.65,-3.06l1.25 -4.16c0.83,-2.77 0.19,-3.72 -2.63,-3.72 -1.5,0 -2.51,0.24 -4.05,0.73 -0.83,0.27 -1.06,0.22 -1.38,-0.11l-1.45 3.64c1.48,-1.98 3.52,-3.02 5.62,-3.02 1.64,0 2.09,0.57 1.58,2.21l-0.13 0.42c-2.76,0.63 -8.15,1.43 -9.2,4.91 -0.49,1.63 0.71,2.59 2.72,2.58 1.71,0 3.74,-0.64 5.07,-2.21 -0.19,0.73 -0.11,1.41 0.16,1.99zm-19.84 -2.89l1.97 -6.55 6.6 -0.01 -2.01 6.71c-0.4,1.27 -0.76,2.44 -2.21,2.55l-0.06 0.2 5.32 0 0.06 -0.2c-1.37,-0.18 -0.98,-1.46 -0.63,-2.7l2.68 -8.93c0.39,-1.22 0.73,-2.37 2.2,-2.55l0.06 -0.2 -5.31 0.01 -0.06 0.2c1.4,0.1 0.99,1.41 0.63,2.7l-0.35 1.15 -6.6 0 0.39 -1.3c0.38,-1.24 0.74,-2.4 2.21,-2.55l0.06 -0.2 -5.32 0 -0.06 0.2c1.36,0.2 1,1.49 0.63,2.7l-2.68 8.93c-0.36,1.2 -0.73,2.35 -2.2,2.55l-0.06 0.2 5.31 -0.01 0.06 -0.2c-1.38,-0.13 -1,-1.43 -0.63,-2.7zm120.25 18.16l-2.3 7.67c-0.47,1.57 -1.04,3.35 -2.9,3.51l-0.08 0.27 6.81 0 0.09 -0.28c-1.81,0 -1.29,-1.84 -0.79,-3.5l2.27 -7.58c0.5,-1.66 1.08,-3.5 2.9,-3.5l0.08 -0.28 -6.82 0.01 -0.08 0.27c1.77,0.15 1.34,1.69 1.34,1.69l-9.15 6.33 1.36 -4.51c0.5,-1.66 1.08,-3.5 2.89,-3.51l0.08 -0.27 -6.81 0 -0.08 0.28c1.76,0.15 1.26,1.93 0.79,3.5l-2.28 7.58c-0.47,1.57 -1.04,3.35 -2.89,3.51l-0.09 0.27 6.82 0 0.08 -0.28c-1.81,0 -1.29,-1.84 -0.79,-3.5l0.41 -1.35 9.14 -6.33zm-19.03 0.01l-2.31 7.68c-0.47,1.57 -1.03,3.35 -2.89,3.5l-0.08 0.28 6.81 -0.01 0.09 -0.27c-1.82,0 -1.29,-1.84 -0.8,-3.5l2.28 -7.59c0.5,-1.65 1.08,-3.5 2.89,-3.5l0.09 -0.27 -6.82 0 -0.08 0.28c1.76,0.15 1.33,1.68 1.33,1.68l-9.14 6.34 1.36 -4.52c0.49,-1.66 1.08,-3.5 2.89,-3.5l0.08 -0.28 -6.81 0.01 -0.09 0.28c1.77,0.15 1.26,1.93 0.79,3.5l-2.27 7.58c-0.47,1.57 -1.04,3.35 -2.89,3.5l-0.09 0.28 6.82 -0.01 0.08 -0.27c-1.81,0 -1.29,-1.85 -0.79,-3.5l0.4 -1.35 9.15 -6.34zm-15.35 -0.6c0.65,-2.18 -1.01,-3.37 -4.88,-3.37 -2.33,0 -3.32,0.65 -3.71,-0.12l-3.06 4.89 0.22 0.09c1.77,-2.03 3.42,-3.44 6.13,-3.45 1.5,0 2.16,0.98 1.8,2.18 -0.58,1.94 -2.24,2.77 -5.53,2.77l-0.35 1.17c4.82,-0.01 5.89,1.13 5.23,3.34 -0.67,2.21 -3.2,3.41 -5.57,3.41 -2.21,0 -3.93,-1.41 -4.26,-3.07l-0.21 0.06 -0.4 4.42c1.68,-0.49 3.36,0.03 4.87,0.03 4.97,0 8.04,-2.03 8.87,-4.83 0.75,-2.48 -0.93,-3.65 -3.59,-4.29 1.76,-0.34 3.91,-1.48 4.44,-3.23zm-18.16 4.68l-0.03 0.1c-1.01,3.37 -4.47,6.11 -7.73,6.11 -2.33,0 -3.78,-1.1 -4.18,-3.12l-0.22 0.09 -0.46 4.51c1.11,-0.74 3.44,0 5.53,-0.01 4.29,0 8.95,-2.83 10.31,-7.37 1.45,-4.82 -1.1,-8.38 -5.89,-8.38 -1.57,0 -3.45,0.56 -4.05,0.1l-2.96 4.64 0.18 0.12c1.6,-1.97 3.84,-3.38 6.26,-3.38 2.89,0 4.02,2.27 3.54,5.18l-7.34 0.01 -0.42 1.41 7.46 -0.01zm-25.77 -0.65c0.93,-3.1 3.15,-5.89 6.62,-5.9 3.62,0 3.87,3.59 2.95,6.63 -0.95,3.16 -3.6,6.17 -6.64,6.18 -3.65,0 -3.86,-3.81 -2.93,-6.91zm-3.68 0.62c-1.45,4.82 1.23,7.76 5.89,7.76 4.82,0 9.52,-3.08 11.02,-8.08 1.47,-4.88 -1.29,-7.68 -5.98,-7.67 -4.79,0 -9.45,3.04 -10.93,7.99zm1.64 -12.74l-19.89 0.02 -0.08 0.27c1.87,0.31 1.37,2.09 0.87,3.75l-3.71 12.37c-0.5,1.66 -1.01,3.25 -3.06,3.53l-0.08 0.28 7.4 -0.01 0.07 -0.24c-1.93,-0.22 -1.44,-1.97 -0.9,-3.75l3.63 -12.09c0.63,-2.09 0.96,-2.71 3.66,-2.71 0.68,0 2.77,0 3.44,0 2.7,0 2.67,0.61 2.05,2.7l-3.63 12.09c-0.54,1.79 -1.1,3.54 -3.16,3.75l-0.07 0.25 7.4 -0.01 0.08 -0.27c-1.88,-0.28 -1.43,-1.88 -0.93,-3.53l3.71 -12.38c0.5,-1.66 1.06,-3.44 3.12,-3.75l0.08 -0.27z"/>
  </g>
 </g>
</svg>
