<?xml version="1.0" encoding="UTF-8"?>
<!DOCTYPE svg PUBLIC "-//W3C//DTD SVG 1.1//EN" "http://www.w3.org/Graphics/SVG/1.1/DTD/svg11.dtd">
<!-- Creator: CorelDRAW 2021 (64-Bit) -->
<svg xmlns="http://www.w3.org/2000/svg" xml:space="preserve" width="249px" height="121px" version="1.1" style="shape-rendering:geometricPrecision; text-rendering:geometricPrecision; image-rendering:optimizeQuality; fill-rule:evenodd; clip-rule:evenodd"
viewBox="0 0 16.91 8.21"
 xmlns:xlink="http://www.w3.org/1999/xlink"
 xmlns:xodm="http://www.corel.com/coreldraw/odm/2003">
 <defs>
  <style type="text/css">
   <![CDATA[
    .fil0 {fill:#BF7F30;fill-rule:nonzero}
   ]]>
  </style>
 </defs>
 <g id="Layer_x0020_1">
  <metadata id="CorelCorpID_0Corel-Layer"/>
  <g id="_1696850652672">
   <path class="fil0" d="M3.06 2.52c0.31,0.2 0.44,0.52 0.48,0.91 0.16,-0.53 0.4,-0.97 0.79,-1.25 -0.41,-0.18 -0.83,-0.11 -1.27,0.34zm-1.43 1.91c0,0.6 0.47,1.13 1.22,1.6 1.33,0.75 1.83,1.48 1.57,2.18 -0.18,-0.56 -0.86,-1.24 -1.91,-2 -0.85,-0.57 -1.1,-1.17 -0.88,-1.78zm0.25 -0.31c0.05,0.57 0.48,1.09 1.51,1.55 1.32,0.59 1.77,1.23 1.67,1.91 -0.41,-0.64 -1.05,-1.16 -1.85,-1.58 -1.17,-0.58 -1.52,-1.22 -1.33,-1.88zm0.12 -0.15c0.15,0.33 0.42,0.65 0.94,0.94 0.48,0.18 0.8,0.4 0.85,0.73 -0.18,-0.2 -0.48,-0.39 -0.91,-0.58 -0.64,-0.29 -0.9,-0.66 -0.88,-1.09zm-0.97 -1.12c0.09,0.15 0.42,0.33 1.09,0.58 0.77,0.26 0.99,0.65 0.79,1.15 -0.02,-0.38 -0.22,-0.67 -0.76,-0.82 -0.77,-0.17 -1.04,-0.51 -1.12,-0.91zm-0.61 -1c0.27,0.37 0.82,0.69 1.58,0.97 0.99,0.36 1.37,0.85 1.15,1.45 -0.02,-0.47 -0.43,-0.85 -1.18,-1.15 -1.03,-0.28 -1.47,-0.72 -1.55,-1.27zm-0.39 -1.85c0.06,1.03 0.72,1.66 1.72,2.06 1.31,0.41 1.75,1 1.64,1.7 -0.16,-0.6 -0.75,-1.04 -1.67,-1.37 -1.53,-0.51 -1.82,-1.39 -1.69,-2.39z"/>
   <path class="fil0" d="M16.54 4.41l-0.2 -0.49 0.21 -0.19c0.1,-0.08 0.23,-0.22 0.36,-0.23l0 -0.02 -0.37 0 -0.01 0.02c0.12,0.01 0.02,0.11 -0.08,0.2l-0.14 0.13 -0.05 -0.13c-0.03,-0.08 -0.06,-0.19 0.07,-0.2l0.01 -0.02 -0.49 0 0 0.02c0.09,0 0.13,0.16 0.16,0.23l0.1 0.28 -0.46 0.41c-0.06,0.06 -0.13,0.13 -0.22,0.15l0 0.02 0.34 0 0.01 -0.02c-0.12,-0.02 -0.04,-0.1 0.15,-0.27l0.22 -0.2 0.09 0.25c0.04,0.11 0.08,0.2 -0.05,0.22l0 0.02 0.46 0 0.01 -0.02c-0.07,-0.01 -0.1,-0.1 -0.12,-0.16zm-1.79 -0.45c-0.13,0.11 -0.25,0.23 -0.36,0.36 -0.11,0.13 -0.21,0.23 -0.27,0.25l-0.01 0.02 0.49 0 0 -0.02c-0.09,-0.02 -0.07,-0.09 -0.01,-0.17 0.1,-0.13 0.24,-0.28 0.37,-0.39 0.06,0.02 0.13,0.03 0.18,0.04l-0.08 0.26c-0.04,0.12 -0.08,0.25 -0.21,0.25l-0.01 0.03 0.5 0 0.01 -0.02c-0.13,0 -0.09,-0.14 -0.06,-0.26l0.17 -0.55c0.03,-0.12 0.08,-0.26 0.21,-0.26l0.01 -0.02 -0.65 0c-0.18,0 -0.44,0 -0.5,0.21 -0.04,0.12 0.07,0.21 0.22,0.27zm0.42 -0.01l-0.23 -0.04c-0.11,-0.03 -0.2,-0.1 -0.17,-0.2 0.04,-0.12 0.16,-0.14 0.26,-0.14 0.25,0 0.25,0.01 0.2,0.16l-0.06 0.22zm-1.77 0.37l0.11 -0.38c0.32,0 0.46,0.13 0.4,0.32 -0.05,0.15 -0.21,0.24 -0.41,0.24 -0.13,0 -0.15,-0.01 -0.1,-0.18zm-0.44 0.27l0.56 0c0.35,0 0.58,-0.13 0.64,-0.33 0.09,-0.27 -0.2,-0.41 -0.62,-0.41l0.03 -0.09c0.04,-0.12 0.07,-0.25 0.23,-0.26l0.01 -0.02 -0.52 0 -0.01 0.02c0.13,0.01 0.09,0.14 0.06,0.26l-0.17 0.55c-0.03,0.12 -0.07,0.25 -0.21,0.26l0 0.02zm-0.35 -1.03c0.15,0 0.13,0.08 0.1,0.2l-0.17 0.55c-0.04,0.13 -0.08,0.26 -0.22,0.26l0 0.02 0.5 0 0.01 -0.02c-0.14,0 -0.1,-0.13 -0.06,-0.26l0.17 -0.55c0.03,-0.12 0.08,-0.26 0.21,-0.26l0 -0.02 -0.87 0 0 0.02c0.08,0.01 0.04,0.09 -0.01,0.13 -0.39,0.38 -0.53,0.82 -0.57,0.96l0.37 0 0 -0.02c-0.13,-0.01 -0.16,-0.11 -0.14,-0.19 0.09,-0.29 0.27,-0.58 0.44,-0.72 0.08,-0.06 0.16,-0.1 0.24,-0.1zm-2.32 0.76l0.12 -0.37c0.31,0 0.45,0.12 0.39,0.31 -0.05,0.15 -0.21,0.24 -0.41,0.24 -0.13,0 -0.15,-0.01 -0.1,-0.18zm-0.44 0.27l0.56 0c0.35,0.01 0.59,-0.12 0.65,-0.33 0.08,-0.27 -0.2,-0.41 -0.63,-0.41l0.03 -0.09c0.04,-0.12 0.08,-0.24 0.24,-0.26l0 -0.02 -0.52 0 -0.01 0.02c0.13,0.01 0.1,0.15 0.06,0.26l-0.16 0.56c-0.04,0.11 -0.08,0.24 -0.22,0.25l0 0.02zm1.66 -0.27l0.16 -0.56c0.04,-0.12 0.08,-0.26 0.22,-0.26l0 -0.02 -0.5 0 0 0.02c0.13,0.01 0.09,0.14 0.05,0.26l-0.16 0.56c-0.04,0.11 -0.08,0.24 -0.22,0.25l0 0.02 0.5 0 0 -0.02c-0.13,0 -0.09,-0.13 -0.05,-0.25zm-2.39 -0.74l0.16 0c0.28,0 0.43,0.17 0.34,0.46 -0.07,0.25 -0.28,0.46 -0.55,0.46 -0.2,0 -0.2,-0.07 -0.16,-0.22l0.21 -0.7zm0.26 -0.1l-0.6 0 0 0.02c0.13,0.01 0.09,0.14 0.06,0.26l-0.31 1.03c-0.04,0.12 -0.08,0.25 -0.22,0.26l0 0.02 0.5 0 0 -0.02c-0.12,-0.01 -0.09,-0.14 -0.05,-0.26l0.06 -0.2 0.24 0c0.35,0.02 0.69,-0.16 0.8,-0.54 0.12,-0.38 -0.09,-0.57 -0.48,-0.57zm-1.71 0.49l0.06 -0.21c0.04,-0.12 0.08,-0.25 0.21,-0.25l0.01 -0.02 -0.5 0 -0.01 0.02c0.13,0.01 0.1,0.14 0.06,0.25l-0.17 0.56c-0.03,0.12 -0.07,0.24 -0.21,0.26l0 0.02 0.5 0 0 -0.02c-0.13,0 -0.1,-0.12 -0.06,-0.26l0.08 -0.24 0.2 -0.15c0.09,0.1 0.22,0.44 0.17,0.57 -0.01,0.05 -0.06,0.08 -0.09,0.08l-0.01 0.02 0.48 0 0.01 -0.03c-0.08,-0.01 -0.08,-0.06 -0.1,-0.13 -0.05,-0.23 -0.11,-0.46 -0.25,-0.64l0.07 -0.05c0.15,-0.1 0.3,-0.22 0.46,-0.25l0.01 -0.02 -0.46 0.01 0 0.02c0.12,0.01 -0.01,0.13 -0.08,0.18l-0.38 0.28zm-1.56 -0.02l-0.02 0.06c-0.05,0.22 -0.2,0.48 -0.49,0.48 -0.1,0 -0.16,-0.06 -0.13,-0.16 0.07,-0.23 0.45,-0.34 0.64,-0.38zm-0.1 0.65l0.31 0 0 -0.02c-0.14,-0.03 -0.1,-0.18 -0.06,-0.31l0.12 -0.43c0.09,-0.28 0.02,-0.38 -0.26,-0.38 -0.16,0 -0.26,0.03 -0.41,0.08 -0.09,0.03 -0.11,0.02 -0.14,-0.01l-0.15 0.37c0.15,-0.2 0.36,-0.31 0.57,-0.31 0.17,0 0.21,0.06 0.16,0.23l-0.01 0.04c-0.28,0.06 -0.83,0.14 -0.94,0.5 -0.05,0.16 0.07,0.26 0.28,0.26 0.17,0 0.38,-0.07 0.51,-0.23 -0.02,0.08 -0.01,0.15 0.02,0.21zm-2.02 -0.3l0.2 -0.66 0.67 0 -0.2 0.68c-0.04,0.13 -0.08,0.25 -0.23,0.26l0 0.02 0.54 0 0.01 -0.02c-0.14,-0.02 -0.1,-0.15 -0.07,-0.28l0.27 -0.9c0.04,-0.13 0.08,-0.25 0.23,-0.26l0 -0.02 -0.54 0 0 0.02c0.14,0.01 0.1,0.14 0.06,0.27l-0.03 0.12 -0.67 0 0.04 -0.13c0.03,-0.13 0.07,-0.25 0.22,-0.26l0.01 -0.02 -0.55 0 0 0.02c0.14,0.02 0.1,0.15 0.06,0.27l-0.27 0.91c-0.04,0.12 -0.07,0.24 -0.22,0.26l-0.01 0.02 0.54 0 0.01 -0.02c-0.14,-0.01 -0.11,-0.15 -0.07,-0.28zm12.23 1.85l-0.23 0.78c-0.05,0.16 -0.11,0.34 -0.3,0.36l-0.01 0.02 0.7 0 0.01 -0.02c-0.19,0 -0.14,-0.19 -0.09,-0.36l0.24 -0.77c0.05,-0.17 0.11,-0.36 0.29,-0.36l0.01 -0.03 -0.69 0.01 -0.01 0.02c0.18,0.02 0.13,0.18 0.13,0.18l-0.93 0.64 0.14 -0.46c0.05,-0.17 0.11,-0.36 0.3,-0.36l0 -0.02 -0.69 0 -0.01 0.02c0.18,0.02 0.13,0.2 0.08,0.36l-0.23 0.77c-0.05,0.16 -0.1,0.34 -0.29,0.36l-0.01 0.03 0.69 0 0.01 -0.03c-0.18,0 -0.13,-0.19 -0.08,-0.36l0.04 -0.14 0.93 -0.64zm-1.93 0l-0.24 0.78c-0.05,0.16 -0.1,0.34 -0.29,0.36l-0.01 0.03 0.69 0 0.01 -0.03c-0.18,0 -0.13,-0.19 -0.08,-0.36l0.23 -0.77c0.05,-0.17 0.11,-0.36 0.29,-0.36l0.01 -0.02 -0.69 0 -0.01 0.03c0.18,0.01 0.14,0.17 0.14,0.17l-0.93 0.64 0.14 -0.46c0.05,-0.17 0.11,-0.35 0.29,-0.35l0.01 -0.03 -0.69 0 -0.01 0.03c0.18,0.01 0.13,0.19 0.08,0.35l-0.23 0.77c-0.05,0.16 -0.11,0.34 -0.3,0.36l-0.01 0.03 0.7 0 0 -0.03c-0.18,0 -0.13,-0.19 -0.08,-0.36l0.05 -0.13 0.93 -0.65zm-1.57 -0.06c0.07,-0.22 -0.1,-0.34 -0.49,-0.34 -0.24,0 -0.34,0.06 -0.38,-0.01l-0.31 0.49 0.02 0.01c0.18,-0.2 0.35,-0.35 0.63,-0.35 0.15,0 0.21,0.1 0.18,0.22 -0.06,0.2 -0.23,0.28 -0.56,0.28l-0.04 0.12c0.49,0 0.6,0.12 0.53,0.34 -0.07,0.23 -0.32,0.35 -0.56,0.35 -0.23,0 -0.4,-0.14 -0.44,-0.31l-0.02 0 -0.04 0.45c0.17,-0.05 0.34,0.01 0.5,0.01 0.5,0 0.81,-0.21 0.9,-0.49 0.07,-0.26 -0.1,-0.38 -0.37,-0.44 0.18,-0.04 0.4,-0.15 0.45,-0.33zm-1.84 0.48l-0.01 0.01c-0.1,0.34 -0.45,0.62 -0.78,0.62 -0.24,0 -0.39,-0.11 -0.43,-0.32l-0.02 0.01 -0.05 0.46c0.12,-0.08 0.35,0 0.57,0 0.43,0 0.91,-0.29 1.05,-0.75 0.14,-0.49 -0.12,-0.85 -0.6,-0.85 -0.16,0 -0.35,0.05 -0.42,0.01l-0.3 0.47 0.02 0.01c0.16,-0.2 0.39,-0.34 0.64,-0.34 0.29,0 0.41,0.23 0.36,0.52l-0.75 0 -0.04 0.15 0.76 0zm-2.62 -0.07c0.09,-0.32 0.32,-0.6 0.67,-0.6 0.37,0 0.39,0.37 0.3,0.67 -0.1,0.33 -0.37,0.63 -0.67,0.63 -0.38,0 -0.4,-0.38 -0.3,-0.7zm-0.38 0.06c-0.14,0.49 0.13,0.79 0.6,0.79 0.49,0 0.97,-0.31 1.12,-0.82 0.15,-0.5 -0.13,-0.78 -0.61,-0.78 -0.48,0 -0.96,0.31 -1.11,0.81zm0.17 -1.29l-2.02 0 -0.01 0.03c0.19,0.03 0.14,0.21 0.09,0.38l-0.38 1.26c-0.05,0.16 -0.1,0.33 -0.31,0.36l-0.01 0.02 0.75 0 0.01 -0.02c-0.2,-0.02 -0.15,-0.2 -0.09,-0.38l0.37 -1.23c0.06,-0.22 0.1,-0.28 0.37,-0.28 0.07,0 0.28,0 0.35,0 0.28,0 0.27,0.06 0.21,0.28l-0.37 1.23c-0.06,0.18 -0.11,0.36 -0.32,0.38l-0.01 0.02 0.75 0 0.01 -0.03c-0.19,-0.02 -0.14,-0.19 -0.09,-0.36l0.37 -1.25c0.06,-0.17 0.11,-0.35 0.32,-0.38l0.01 -0.03z"/>
  </g>
 </g>
</svg>
